<?xml version="1.0" encoding="utf-8"?>
<!-- Generator: Adobe Illustrator 19.2.0, SVG Export Plug-In . SVG Version: 6.00 Build 0)  -->
<svg version="1.1" id="Layer_1" xmlns="http://www.w3.org/2000/svg" xmlns:xlink="http://www.w3.org/1999/xlink" x="0px" y="0px"
	 viewBox="0 0 193 29" style="enable-background:new 0 0 193 29;" xml:space="preserve">
<g>
	<path d="M25.4,9.8L25.4,9.8l-6.2,16.9h-3.1L10,9.8l-0.1,0l0.4,10v3.6l2.4,0.5v2.7H3.4v-2.7l2.4-0.5V7.1L3.4,6.6V3.9h2.4h6l5.8,16.8
		h0.1l5.9-16.8h8.4v2.8l-2.4,0.5v16.4l2.4,0.5v2.7h-9.4v-2.7l2.4-0.5v-3.6L25.4,9.8z"/>
	<path d="M44.5,26.7c-0.1-0.3-0.2-0.6-0.3-0.9c-0.1-0.3-0.2-0.6-0.2-0.9c-0.5,0.6-1.2,1.1-2,1.5c-0.8,0.4-1.7,0.6-2.7,0.6
		c-1.7,0-3-0.5-4-1.4s-1.5-2.1-1.5-3.7c0-1.6,0.6-2.8,1.9-3.7c1.3-0.9,3.1-1.3,5.6-1.3h2.3v-1.7c0-0.8-0.2-1.4-0.7-1.9
		c-0.5-0.4-1.2-0.7-2.1-0.7c-0.5,0-1,0.1-1.4,0.2c-0.4,0.1-0.7,0.3-1,0.4l-0.3,1.8h-3.4l0-3.8c0.8-0.6,1.8-1,2.9-1.4
		c1.1-0.4,2.3-0.6,3.5-0.6c2.1,0,3.8,0.5,5.1,1.5s2,2.5,2,4.4v7c0,0.3,0,0.5,0,0.7c0,0.2,0,0.4,0.1,0.7l1.4,0.2v2.7H44.5z
		 M40.5,23.6c0.7,0,1.3-0.1,1.9-0.4c0.6-0.3,1-0.7,1.3-1.1v-2.6h-2.3c-1,0-1.7,0.2-2.2,0.7c-0.5,0.5-0.8,1-0.8,1.6
		c0,0.6,0.2,1,0.6,1.3C39.3,23.4,39.9,23.6,40.5,23.6z"/>
	<path d="M51.6,23.9l2.2-0.5V12.9l-2.4-0.5V9.7h6.7l0.2,2.5c0.4-0.9,0.9-1.6,1.5-2.1c0.6-0.5,1.4-0.7,2.2-0.7c0.2,0,0.5,0,0.8,0.1
		s0.5,0.1,0.7,0.1l-0.5,4.2l-1.9,0c-0.7,0-1.2,0.1-1.7,0.4c-0.4,0.3-0.8,0.6-1,1.1v8.2l2.2,0.5v2.7h-9V23.9z"/>
	<path d="M63.5,5V2.2h7v14.2h1l2.6-3.7l-1.5-0.2V9.7H81v2.8l-2,0.5L76,17.1l4.3,6.4l1.7,0.4v2.7h-7.8v-2.7l0.9-0.2l-2.6-4.2h-2v3.9
		l2,0.5v2.7h-8.7v-2.7l2.2-0.5v-18L63.5,5z"/>
	<path d="M91.4,27c-2.4,0-4.4-0.8-5.9-2.3c-1.5-1.6-2.2-3.6-2.2-6v-0.6c0-2.5,0.7-4.6,2.1-6.2c1.4-1.6,3.2-2.4,5.6-2.4
		c2.3,0,4.1,0.7,5.3,2.1c1.3,1.4,1.9,3.2,1.9,5.6v2.5H88.1l0,0.1c0.1,1.1,0.5,2,1.1,2.8c0.7,0.7,1.6,1.1,2.7,1.1
		c1,0,1.9-0.1,2.5-0.3c0.7-0.2,1.4-0.5,2.2-1l1.2,2.8c-0.7,0.6-1.6,1-2.7,1.4C94,26.8,92.7,27,91.4,27z M90.9,12.9
		c-0.8,0-1.5,0.3-2,1c-0.5,0.6-0.8,1.5-0.9,2.6l0,0.1h5.6v-0.4c0-1-0.2-1.7-0.7-2.3S91.9,12.9,90.9,12.9z"/>
	<path d="M107.1,5.6v4.1h3v3.2h-3v8.6c0,0.7,0.1,1.1,0.4,1.4c0.3,0.3,0.6,0.4,1.1,0.4c0.3,0,0.6,0,0.8,0c0.2,0,0.5-0.1,0.8-0.1
		l0.4,3.3c-0.5,0.2-1,0.3-1.5,0.4s-1,0.1-1.6,0.1c-1.6,0-2.8-0.4-3.6-1.3c-0.9-0.9-1.3-2.2-1.3-4.1v-8.6H100V9.7h2.5V5.6H107.1z"/>
	<path d="M122,3.9c2.4,0,4.2,0.6,5.5,1.8c1.3,1.2,2,2.8,2,4.8c0,2-0.7,3.6-2,4.9c-1.3,1.2-3.2,1.8-5.5,1.8h-5.2v7.9l2.6,0.2v1.4h-7
		v-1.4l2.6-0.2V5.5l-2.6-0.2V3.9h2.6H122z M116.8,15.6h5.2c1.9,0,3.3-0.5,4.2-1.4c0.9-1,1.4-2.2,1.4-3.6c0-1.5-0.5-2.7-1.4-3.6
		c-0.9-1-2.4-1.4-4.2-1.4h-5.2V15.6z"/>
	<path d="M132.4,3.6V2.2h4.4v22.8l2.6,0.2v1.4h-7v-1.4l2.6-0.2V3.8L132.4,3.6z"/>
	<path d="M154,26.7c-0.1-0.6-0.2-1.1-0.3-1.5c-0.1-0.4-0.1-0.8-0.1-1.3c-0.6,0.9-1.5,1.6-2.5,2.2S149,27,147.7,27
		c-1.7,0-2.9-0.4-3.9-1.3c-0.9-0.9-1.4-2-1.4-3.5c0-1.6,0.7-2.8,2-3.7c1.3-0.9,3.2-1.4,5.5-1.4h3.7v-2.2c0-1.2-0.4-2.2-1.2-2.8
		c-0.8-0.7-1.9-1-3.3-1c-0.9,0-1.8,0.1-2.6,0.4c-0.8,0.3-1.4,0.6-1.9,1l-0.2,2.3H143l0-3.3c0.8-0.6,1.7-1.1,2.8-1.5
		c1.1-0.4,2.3-0.6,3.5-0.6c1.9,0,3.4,0.5,4.5,1.4c1.1,0.9,1.7,2.3,1.7,4.1v8.3c0,0.3,0,0.7,0,1c0,0.3,0,0.6,0.1,0.9l1.7,0.1v1.4H154
		z M147.9,25.3c1.4,0,2.6-0.3,3.6-0.9c1-0.6,1.8-1.4,2.2-2.4v-3.4h-3.8c-1.7,0-3.1,0.4-4.1,1.1c-1,0.7-1.5,1.6-1.5,2.7
		c0,0.9,0.3,1.6,0.9,2.2C145.9,25.1,146.8,25.3,147.9,25.3z"/>
	<path d="M167.3,25.4c1.2,0,2.3-0.4,3.3-1.1c0.9-0.7,1.4-1.7,1.4-3h1.7l0,0.1c0.1,1.6-0.6,2.9-1.9,3.9c-1.3,1.1-2.8,1.6-4.5,1.6
		c-2.3,0-4.1-0.8-5.3-2.4S160,21,160,18.5v-0.7c0-2.5,0.6-4.5,1.9-6.1s3-2.4,5.3-2.4c1.3,0,2.5,0.2,3.6,0.7c1.1,0.5,2,1.2,2.6,2
		l0.1,3.7H172l-0.3-3c-0.5-0.6-1.1-1-1.9-1.3s-1.6-0.5-2.5-0.5c-1.8,0-3.2,0.6-4,1.9c-0.9,1.3-1.3,2.9-1.3,4.9v0.7
		c0,2,0.4,3.7,1.3,4.9C164.1,24.8,165.4,25.4,167.3,25.4z"/>
	<path d="M184.6,27c-2.1,0-3.9-0.8-5.3-2.3c-1.4-1.6-2.1-3.5-2.1-6v-0.9c0-2.4,0.7-4.4,2.1-6c1.4-1.6,3.1-2.4,5-2.4
		c2.1,0,3.7,0.7,4.9,2c1.2,1.3,1.8,3.1,1.8,5.3v1.6h-12v0.5c0,1.9,0.5,3.5,1.5,4.8s2.4,1.9,4,1.9c1.2,0,2.1-0.2,3-0.5
		c0.8-0.3,1.5-0.8,2.1-1.4l0.8,1.3c-0.6,0.7-1.4,1.2-2.4,1.6C187.1,26.8,186,27,184.6,27z M184.4,11c-1.4,0-2.5,0.5-3.5,1.6
		c-0.9,1.1-1.5,2.4-1.7,4l0,0.1h9.9v-0.5c0-1.5-0.4-2.7-1.3-3.7C187,11.5,185.9,11,184.4,11z"/>
</g>
</svg>
